<svg xmlns="http://www.w3.org/2000/svg" viewBox="0 0 400 300">
  <rect width="400" height="300" fill="#e6e9ec"/>
  <ellipse cx="200" cy="256" rx="70" ry="10" fill="rgba(0,0,0,0.08)"/>
  <path d="M146 56h108l-10 184c-1 8-7 12-14 12h-60c-7 0-13-4-14-12z" fill="#ffffff"/>
  <path d="M152 110h96l-7 130c0 4-3 6-7 6h-68c-4 0-7-2-7-6z" fill="#6b4b36"/>
  <rect x="164" y="122" width="26" height="26" rx="5" fill="rgba(255,255,255,0.55)"/>
  <rect x="200" y="150" width="26" height="26" rx="5" fill="rgba(255,255,255,0.55)"/>
  <rect x="176" y="182" width="26" height="26" rx="5" fill="rgba(255,255,255,0.55)"/>
  <path d="M214 60l30-30" stroke="#ffffff" stroke-width="10" stroke-linecap="round"/>
</svg>
